<svg id="图层_1" data-name="图层 1" xmlns="http://www.w3.org/2000/svg" width="2000" height="2000" viewBox="0 0 2000 2000">
  <defs>
    <style>
      .cls-1 {
        fill: #e5e3e1;
      }

      .cls-1, .cls-3 {
        stroke: #000;
        stroke-width: 18.68px;
      }

      .cls-1, .cls-3, .cls-9 {
        stroke-miterlimit: 10;
      }

      .cls-2 {
        fill: #fff;
      }

      .cls-3 {
        fill: #fcfbfa;
      }

      .cls-4 {
        fill: #b0aea3;
      }

      .cls-5 {
        fill: #edb0b7;
      }

      .cls-6 {
        fill: #efc2c9;
      }

      .cls-7 {
        fill: #e5cd89;
      }

      .cls-8 {
        fill: #b59e64;
      }

      .cls-9 {
        fill: none;
        stroke: #edb0b7;
        stroke-width: 24.9px;
      }
    </style>
  </defs>
  <path d="M1457.78,849.26c10.64-1.2,21.34-2,31.91-3.69,24.51-3.86,49-8.15,73.43-12.24,23.71-4,47.47-7.67,71.14-11.86,124.41-22,236.84,39,286,148.42,17.47,38.92,23,80.29,17.32,123-10.32,77.25-49.9,133.73-119.82,168-32.63,16-67.13,21.46-103.41,12.94-17.82-4.19-36.14-7.83-54.6-3.59a243.72,243.72,0,0,0-25.93,7.81c-16.27,5.7-32.42,11.79-49.91,18.19,4.06,5.91,8,12.12,12.38,18,20.3,27,47.51,45.84,75.38,64,38.14,24.93,76.91,49.08,113.5,76.14,47.39,35,86.53,78,111.23,132.49,17.65,39,25.36,79.51,20.73,122.41-3.2,29.62-5.29,59.43-14.47,87.93-21.45,66.58-60.59,117.85-129.12,140.78-23.62,7.9-48.61,12.91-73.37,15.91-32.05,3.87-64.52,6.24-96.77,6-54.54-.49-104.31-18.69-151.49-45.44-32.91-18.65-66.1-36.71-95.85-60.29-4.14-3.28-7.47-2.74-12-.42-20.22,10.39-40,22.21-61.23,29.88-21,7.57-43.38,11.81-65.48,15.62-24.17,4.17-48.68,6.64-73.12,9-40,3.91-80.14,5.35-120.34,2.94-10.6-.64-21.23-.81-31.85-.84-37-.11-74.15,1.53-111.07-.53-35.05-2-69.89-7.76-104.83-11.77-43.85-5-83.28-22-120.46-44.83-5.61-3.44-9.12-.93-13.13,2.22C600.1,1888.82,552.71,1914,504,1936.35c-49.36,22.69-102.22,27.64-155.8,22.93-30.1-2.65-60.19-6.71-89.88-12.29-71.07-13.37-119.94-55.37-149.86-120.36-12.36-26.84-18.6-55.34-21.75-84.58q-2.19-20.46-4-41c-4.18-46.39,7.6-89.29,29-129.92,24.8-47,60.3-85.12,102.66-116.09,41.12-30.06,84.61-56.89,127-85.2,26.24-17.51,50.53-37.13,68.42-63.62,1.45-2.15,2.81-4.35,4.12-6.59a35.48,35.48,0,0,0,1.61-3.51c-15.89-5.92-31.82-11.05-47.08-17.71-27.22-11.87-54.88-11.45-82.94-4.76-48.6,11.57-91.86-2.24-131.73-28.82-42.79-28.53-71.53-68.33-84.68-118-19.29-72.82-6.92-140.78,36.66-202.37,34.76-49.13,81.94-81.47,139.52-98.3a227,227,0,0,1,96.92-7.14c50.91,7.42,101.6,16.38,152.43,24.4,15.76,2.49,31.66,4.07,47.49,6.07l1.13-1.95c-1.66-2-3.07-4.25-5-5.91-14.15-12.15-28.13-24.51-42.66-36.19-42.18-33.91-67.15-78.52-82.16-129.65A338,338,0,0,1,400.72,556c1.8-25.53,5.85-50.9,8.67-76.36a194.86,194.86,0,0,0,1.34-24c0-2-3.07-5.68-4.84-5.75-44-1.7-74.73-25.39-97.74-60.31-31.67-48.05-43.43-101.74-34.52-158C287.3,145.23,336.72,86.88,420,58.82c22.13-7.46,45.49-9.15,69-7.84,44.1,2.44,85,16.8,125.76,32.19,26,9.82,52.76,16.73,80.45,11.53,21.19-4,41.92-10.76,62.58-17.16,33.54-10.39,66.52-22.71,100.36-31.93,31.31-8.54,63.6-7.91,95.62-2.55a273.39,273.39,0,0,0,92.77,0c40.29-7,80.08-3.85,118.92,8.46,30.51,9.67,60.9,19.88,90.78,31.34,46.11,17.69,91.27,16.74,136.73-2.19,30.09-12.54,61.12-22.65,93.54-27.32,75.65-10.87,139.58,11.44,190.63,68.76a197.33,197.33,0,0,1,49.2,108c8.4,65.75-5.3,126.42-48.74,178.14-21.37,25.44-48.83,40.49-82.84,41.33-5.29.13-6,3-5.66,7,1.16,14.44,1.55,29,3.71,43.29,6.54,43.2,10.57,86.49,3.91,130-7.88,51.36-24,99.92-57.56,140.48-14.23,17.19-32.22,31.31-48.79,46.5-11,10.1-22.54,19.63-33.84,29.41Zm-505,161.35c-7.45,1.75-14.3,2.71-22.47.34-22.69-6.57-45.68-13.73-69-16.05-33.17-3.28-66.8-2.15-98.69,10-18.43,7-37.95,13.16-47,36.39-.89-4.47-1.58-6.81-1.79-9.2-1-11.59,5.56-20.21,11.9-28.7,9.4-12.61,13.77-26.41,12-42.18-.66-6.11-2.92-9-9.6-9.49-21.16-1.46-42.38-2.85-63.38-5.67-33.8-4.55-61.81-19.72-81.91-48.09C574,885.48,564.61,873.38,556,860.8c-3.5-5.1-7.36-6.47-13.1-5-8.27,2.09-16.69,3.59-25,5.66-36,9-70.14,21.85-99,46.09-1.46,1.22-3.16,2.18-5.79,4-.17-17.45,8.59-29.31,20-41.49-31.8-9.9-62.74-11.08-93.88-6s-60.85,13.94-84,40.34c-1.69-16.19,4.67-27.72,13.2-40.61-4.13,1.52-5.87,1.93-7.38,2.76-18.59,10.22-37.29,20.24-55.67,30.82-34.67,20-52.47,49.67-51,90.19.07,1.9-.55,3.82-.92,6.25-10.62-4.39-13.85-13.9-18.21-22.73-7.32,9.81-9.9,42.41-4.28,72.08,6.39,33.73,25.71,57.95,58.12,71.95-7.65,1.11-15.08,1.77-22.34.92-7.51-.87-14.85-3.2-24.21-5.34,8.78,21.75,20.46,39.69,36.15,54.83,27.94,26.94,60.71,38.12,101.32,27.3-12.67,16.52-25.32,29.12-46.27,33.89a58.39,58.39,0,0,0,5.49,2.3c31.58,8.28,63.14,7.38,94.4-1.24,20.9-5.76,39.64-15.23,50.3-35.75.15-.29.93-.27,2.42-.64,5.29,17.93,1.93,35-6.59,53.51,55-2.69,90.16-28.93,110-79.62,8.31,27.64,6.11,52.28-2.49,77.29a120.37,120.37,0,0,0,42.61-31.49c33.13-38,41.72-80.1,18.54-127.37,11,1.09,17.64,6.87,21.46,14.5,6,11.93,10.49,24.59,15.35,37,1.64,4.21,2.45,8.74,3.64,13.12,12.87-42.27,15.84-84.52,7.54-129.2,3,2.24,3.9,2.75,4.62,3.43,15.65,14.73,20.21,34,21.08,54.27,1.13,26.2-4.65,51.45-13.14,76-18.56,53.71-51,96.12-102,123.11a177.32,177.32,0,0,1-66.5,19.8c-2.42.23-6.37,3.25-6.55,5.26-2.54,27.36-13.94,51.13-28.4,73.89-13.33,21-26.5,42.13-31.61,67-1.29,6.29-2.31,12.63-3.46,19-8.52-21.4-7.42-43.52-6.79-66.51a32.93,32.93,0,0,0-4.15,2.27c-19.47,16.25-38.66,32.84-58.42,48.73-27.32,22-45.35,49.33-51.33,84.18q-2.31,13.56-4.67,27.11l-3.15.27c-2.89-14.42-5.79-28.84-9.08-45.23-35.6,36.64-48.86,79.18-41.89,130.06-14.17-12.46-17.51-27.9-20.14-44.08-1.29,1.14-1.86,1.4-2,1.8-1.64,5.17-3.42,10.31-4.77,15.56-8.23,32.14-16,64.21-9.6,97.94,5.51,29.16,17.87,53.81,42.37,71.51,1.77,1.27,3.43,2.69,6.37,5-17.65,3.48-32.7-1.31-47.89-6.66.69,12.23,12.39,32.1,26.5,45.62,34.2,32.8,74.22,38.89,118.8,25.17-11.2,17.58-27.24,27.92-46.18,34.26,4.3,7.82,10.46,13.07,26.54,14.54C324,1906.37,367,1907.5,398.16,1867a51,51,0,0,1-5.67,32.87c-5.17,9.47-12.36,17.84-18.75,26.82a6.13,6.13,0,0,0,2.2.53,39.24,39.24,0,0,0,4.46-1.21c46.7-14,84.1-41.6,114.38-79.21,34.17-42.46,42.41-89.43,22.64-140.55-5.36-13.87-12.2-27.16-18.85-41.78a55.44,55.44,0,0,1,33.08,19.45c8.33,10,14.93,21.5,22.49,32.63,1.38-29-8.47-54.25-28.13-75.68-19.9-21.69-45.61-31.76-74.58-35,23.09-7.16,45.83-9.42,69.11.65-5.75-7-11.54-14-18.94-17.74-33.93-17.31-69.75-24.55-108.14-17.75,5.4-3.75,10.93-7.39,17-9.83,24.25-9.78,49.74-12.09,75.51-10.54,43.22,2.6,76.13,21.62,94.32,62.3,20.13,45,18.48,91.71,9,138.62a276.43,276.43,0,0,1-37,92.44c-1,1.67-1.34,3.8-2,5.72,60.63-19.63,83.66-65.85,90.31-124.14,8.26,21.32,10.81,43,9.91,65.78,3-1.64,5.85-3.28,7-5.71,3.2-6.72,6.76-13.55,8.32-20.74a366.25,366.25,0,0,0,8.25-81.72c-.26-26.36-7.68-49.86-24.67-70.2-3.31-4-6.39-8.11-9.58-12.18l1.77-2.61,34.38,14.75c-11.78-49.66-43-80.42-91.09-96,18.14-3.51,35.23-2.49,51.17,9.2a23.2,23.2,0,0,0-1.24-9.87c-7.66-18.93-15.53-37.78-23.29-56.67-4.54-11.06-9-22.15-13.47-33.23l1.64-1.33c4,2.25,8,4.34,11.87,6.79,23,14.75,39.71,35.38,53.76,58.34,35.82,58.55,53.6,122.48,54.92,190.85.62,32.43-2.41,64.75-13.47,95.6-3.78,10.55-9.71,20.33-15.18,31.53,36.73,12.16,70.55,1.24,104.39-11.12a68.33,68.33,0,0,1-28.24,25.23c-11.21,5.32-23.14,9.12-36.45,14.23,57.87,12.89,113.31,18.87,164.55-19.54-4.44,10.18-9,20.06-15.59,28.26-6.81,8.42-15.66,15.21-24.67,23.71,21.23,2.31,39.54-3.41,57.14-12.49,17.89-9.22,31.57-23.3,44.47-39,0,11.78-.58,23.14-2.61,34.24-2,10.93-5.51,21.58-8.7,33.65,10.68-3.5,17.34-9.83,23.38-16.87,14.2-16.51,19.65-36.63,23.63-57.4,1.63-8.46,3.81-16.81,5.74-25.21l2.49-.13c1.3,3.75,2.94,7.43,3.84,11.27,2.77,11.83,4.86,23.83,7.94,35.58,5,19,14.49,35.41,30.71,47.2,3,2.22,6.69,3.64,11.38,6.14-3.54-13.22-6.63-24.1-9.34-35.07a80.07,80.07,0,0,1-1.21-33.33c12,16.45,26,29.91,43.9,39.09,17.54,9,35.79,14.7,57.73,12.31-7.34-6.18-13.36-10.55-18.52-15.78a109.75,109.75,0,0,1-14.2-17.36c-3.78-5.9-6.2-12.68-9.22-19.07,28,20,53.61,27.42,80.16,28.95,31.41,1.82,76.14-3.95,83.55-11.06-32.08-8.08-56-22.26-62.46-37.17a7.24,7.24,0,0,1,2.25-.08c1.72.53,3.38,1.26,5.07,1.91,28.38,10.85,57.14,18.6,87.92,11.57,8.83-2,9.16-2.64,5-10.4-4.71-8.89-10.07-17.71-13-27.23-15.37-50.08-15.09-101.07-6.59-152.21A362.31,362.31,0,0,1,1327.56,1503c15.16-27.17,33.1-52,59.31-69.79,4.54-3.07,9.43-5.64,14.16-8.44l1.56,1.54c-1,2.55-1.92,5.11-3,7.63-11.48,28-23,56-34.39,84-1,2.47-1.06,5.34-1.55,8,16.78-11.45,33.84-12.87,52.18-9-48.06,15.57-79.44,46.34-90.43,96.51,10.63-7.31,21.66-12.83,34.6-13.7,0,1,.2,1.6,0,1.92a51.4,51.4,0,0,1-3.4,4.22c-22.21,24.48-32.25,53.44-30.37,86.2,1.19,20.65,3.17,41.31,6.22,61.76,1.54,10.28,6,20.21,9.72,30.05,1.2,3.13,4.48,5.47,6.81,8.17l2-1c-.77-21.84-.73-43.54,9.17-63.89,4,27.26,10,53.66,25.55,76.7s36.91,38.72,63.86,47.07c.5-1.92.82-2.46.7-2.88a10.26,10.26,0,0,0-1.12-2.86c-20.79-33.39-34-69.54-40.43-108.35-6.27-37.89-6.1-75.32,6.69-111.93,12.71-36.42,36.46-61.82,74.94-70.76,29.55-6.87,59.15-4.93,88.32,3,10.81,3,21.17,7.12,29.38,15.56-16-5.72-32.09-5.43-48.34-2.41-9.89,1.85-19.93,3.14-29.66,5.65-16.14,4.17-31.57,10.21-43.77,22.22-2.28,2.25-3.81,5.26-6.89,9.63,29.78-9.35,59.84-9.62,68.21-2.38-12.56,3.59-26.67,5.69-38.9,11.67-12.53,6.12-24.79,14.55-34.23,24.71-9.25,9.94-16,22.76-21.68,35.32-7.92,17.61-8.82,34.26-4.73,40.27,17.11-34,38.6-54.54,54.41-51.7-4.4,8.28-9.18,16.26-13,24.67-17.35,37.84-24.78,77-7.12,116.36,26.64,59.31,73.63,96.78,134.24,118.13,3.21,1.13,6.64,1.68,10.76,2.7-7-9.79-13.87-18.07-19.1-27.31-5.42-9.57-7.31-20.36-6.61-31.81,9.09,7.66,16.33,15.8,25.29,21,32.39,18.63,67.4,17.45,102.59,10.8,6.65-1.25,13.52-4.53,17.34-12.24-19.73-6.71-36-16.67-46.81-34.71,29.9,10.26,59.33,10.39,87.81-3s47.8-35.39,57.21-66c-15.64,4.83-30.72,8.69-47.26,5.39.93-1.44,1.11-2,1.5-2.26,34.06-22.35,48-55.46,48.49-94.57.22-18.21-2.53-36.61-5.53-54.67-2.29-13.82-7.08-27.22-10.76-40.81l-2.36-.17c-1.3,16.56-5.7,31.66-19.54,44.59,2.9-25.36,2.71-48.47-5.07-70.94-7.71-22.27-18.93-42.21-37.54-57.56-2.58,15-2.85,29.87-11.19,44.17-2.61-13.83-4.53-26.09-7.27-38.17-7.37-32.4-27.1-56.36-52.46-76.63-18.6-14.86-36.57-30.51-54.87-45.74-1-.82-2.52-1-4.48-1.74.39,22.65,1.82,44.61-5.92,67.9-.92-4-1.51-5.93-1.78-7.88-3.29-24.32-12.53-46.36-25.66-66.88-17.51-27.36-34.36-55-37-88.56-.12-1.57-3.3-3.75-5.34-4.14-5.83-1.14-11.9-1-17.71-2.23-54.65-11.35-96.19-41.7-126.45-88.06-22.07-33.81-34-71.31-38.17-111.19-2.16-20.63.33-41,11-59.37,3-5.23,7.68-9.53,11.59-14.26l2.41,1.34c-8.2,42.58-4.75,84.4,7.15,125.81a49.82,49.82,0,0,0,4.28-12.45c3.27-14.54,8.49-28.25,17.62-40.17,4.57-6,10-10.9,19.87-11.2-16.48,30.6-17.86,61.06-4.75,91.87,13,30.43,35.8,51.38,65.3,68.11-2.81-14.34-6.07-26.52-7.39-38.91s-.34-25.22,5.82-39.27c8.64,25,21.75,44.15,41.77,58.07,19.71,13.7,41.16,21.39,67.38,20.2-8.93-18.13-12.14-35.17-5.32-53.07,7.82,16,21,25.47,36.44,31.66,27.66,11.07,56.54,14.39,86.1,10.77,9-1.1,17.87-3.13,26.8-4.74l.21-2.22c-19.21-4.57-32.29-16.81-44.54-34,32.09,9.82,59.51,3.75,84.83-13.35,24.8-16.75,40.38-40.65,53.26-68.78-9.25,2.31-16.56,4.92-24.07,5.78s-15-.09-22.44-.24l-.17-2.44c21.08-7.41,36.38-21.51,47.1-40.71,17.23-30.86,14.91-63.77,9.62-96.89-.22-1.37-1.9-2.5-3.39-4.36-4.78,9.12-8,18.31-18.66,22.57-.34-5.11-.84-9.18-.85-13.26-.12-33.15-13.65-59.38-41.69-77-21-13.19-43-24.81-64.6-37.06-1.62-.92-3.6-1.2-7-2.29,8.2,12.56,14.91,23.86,12.61,39.64-23.47-26.07-53.17-35-84.51-40-31.08-4.93-61.81-3.73-93.53,6.17,12.22,12.23,20.5,24.23,20.39,41-1.63-.6-2.46-.68-3-1.12-37.15-32.27-82.41-45.28-129.33-54.12-2.73-.52-7.16,1.22-8.92,3.42-7.44,9.29-14.48,18.93-21.1,28.83-18,27-40.88,48.25-73.47,54.57-25,4.85-50.7,6.83-76.19,8.83-8.38.66-11.36,3.86-12.5,11.14-2.32,14.82,3.27,27.39,10.76,39.53,3.93,6.37,8.11,12.67,11.3,19.41,3.57,7.55,2.36,15.46-2.16,19.65.76-14.23-9.56-20-19.48-25.69-21.46-12.25-45-18.6-69.34-20.8-37.58-3.4-74.75-.47-110.75,12.11-23.24,8.12-23.28,8-44-2.76-.23-.12-.45-.27-.67-.39-9-4.84-10.81-19.24-3.3-26,4-3.65,8.12-7.27,13.44-12H953.29c.86,1.33,1.36,2.88,2.43,3.64,8.49,6.08,14.51,13,13.38,24.73-.41,4.35-.41,7.11-4.59,9.22s-8,5.11-12,7.71ZM655,160.62l1.9,1.38c-.46,4.3-.47,8.69-1.46,12.86-5.82,24.64-22.49,41-42.89,53.88-17.07,10.77-35,20.15-52.24,30.66-16.27,9.91-29.55,23.25-37.21,40.74-8.59,19.59-15.86,39.78-23.11,59.92-8.16,22.67-13.84,47.56-32.85,63.27-15.79,13.05-16.64,27.34-15.26,44.89,2.45,31.16,8.93,60.82,26.36,87.34a22.41,22.41,0,0,1,1.73,4.47l-1.76,1.84-31.84-21.32c0,2.18-.39,4.24.06,6.09,5.74,23.57,10.22,47.56,17.82,70.51,8.13,24.54,23.55,44.23,48.48,54.69.46.2.61,1.14,1.13,2.19-18.35,4.6-35.35-1.18-53.38-4.35,4.25,8.23,8.54,16.21,14.61,22.48,31.54,32.61,66.74,58.83,114.7,61.73-18.56,12.35-39.31,13.54-60.8,13.37,28.86,33.43,58.75,63.74,109.25,53-6.58,17.64-16.1,31-36,36.77,16,10.37,31.29,15.55,47.3,15.76,15.7.2,31.44-2.67,47.48-4.23-2,14.47-13,23.2-25.72,31.55,14.94,10,29.74,15.06,45.36,17.71,1.56.27,4.55-2.52,5.42-4.52,3.09-7.1,7.54-12.93,15.41-13.88,12-1.44,24.12-1.85,36.19-2.59,3.33-.21,6.67,0,10,0-.51-2.65-1.14-3.45-2-3.93-11.82-7-23.72-13.82-35.47-20.9-30.28-18.25-50.41-44.3-58.8-78.74-9.5-39-5-77.06,9.39-114.23,10.38-26.84,25.33-50.93,43.85-72.87,2.42-2.86,5.07-5.43,1.12-9.15-15.11-14.25-12.41-41.64.66-57.63,19.2-23.51,57.62-31.18,77.34-4.2,1.16,1.59,6.22,2.08,8.35,1,32-16.88,66-28.17,101.12-36.35,41.62-9.68,83.31-12.24,125.42-3.32,40.62,8.59,80.3,19.88,116.87,40.15,4.45,2.47,6.56,1.1,9.67-2.32,4.09-4.5,8.79-9,14.15-11.71,21.28-10.6,50.6-.93,64.58,20.65,11.17,17.23,11.2,38.4-.8,52-4.19,4.76-3.32,7.35.26,11.61,31.91,38,53.06,80.78,57.07,130.86,2.89,36.12-3.55,70.14-25.08,100.24-13.94,19.5-33.56,32-53.94,43.61-7.31,4.15-14.55,8.41-21.83,12.62.16.68.33,1.37.49,2.06,2.38.21,4.76.57,7.14.61,9.59.16,19.21-.27,28.75.46,10,.75,20.33,2.52,24.2,13.53,2.58,7.36,6.34,8.48,12.74,5.78,1.4-.59,3.06-.55,4.55-1,11.89-3.37,23.44-7.5,34.51-15.95-12.63-8.35-23.75-17-25.65-33.94,32.58,11.71,63.18,10,92.86-8.61-18.1-6-26.94-19.67-34.1-37.64,23.18,6.56,43.58,1.94,62.68-9.11,18.77-10.84,33.79-25.89,49-44.45-23.49,1.34-44.46.53-62.78-12.48,28.26-.62,52.69-11.44,75.05-27.17,21.8-15.33,43-31.57,55.46-58.3-10.77,2.67-19.36,5.64-28.18,6.75-8.51,1.07-17.26.23-25.9.23l-.45-2.74c25.81-10.43,41.12-30.56,49.78-55.57,6.23-18,10.14-36.8,14.75-55.33,1.68-6.73,2.42-13.7,3.58-20.56l-2.67-1.53c-8.21,10.9-19.08,17.27-33.31,22.11,4.17-7,7.45-11.89,10.19-17.1,16.88-32.14,20.63-66.9,19.94-102.44,0-2.55-2.37-5.74-4.56-7.44-13.86-10.76-24.31-24.22-30.6-40.43-8.41-21.66-15.81-43.71-23.67-65.58-9.91-27.53-23.09-52.79-49.29-68.53-16.86-10.12-34.17-19.49-50.92-29.78-18.17-11.15-33.77-25.08-41.9-45.48-3-7.44-6.05-15.25-2.67-24.62A119.6,119.6,0,0,0,1397,190.63c19.56,5.55,39.44,6,59.57,2l.78,2.47-16.58,13.26c16,10.61,31,21.58,47,30.76,13.61,7.82,28.7,10.21,44.13,4.28,1.54-.59,3.17-.92,6-1.73-5.63,17-17,25.3-35.29,28.91,9.68,13,17.66,25.3,27.29,36.17,14.79,16.68,33.48,26.42,56.55,25.41-2.06,13.44-13.13,23.28-27.11,24.75-5.07.53-8.83,1.3-6.64,7.9,6.34,19,29.55,34.32,49.26,32.26a54.32,54.32,0,0,0,47.44-67c-1.46-6.11-3.67-12-5.53-18.05l1.88-1.7,30.63,30.4c8.24-21.42,9.22-42.55,3.44-63.77-5.82-21.38-15.75-40.33-37.63-51.79,15.9-5.84,28.88.53,42.36,4-25-37.32-53-69.13-105.34-64.65,21.81-17.83,45.21-20,70.29-15.92-43.8-29.36-89.93-40.33-140.81-19.55,5.26-19.84,19.27-30.51,38.39-36.17-16.55-4.24-32.94-4-48.83-1-25.52,4.76-50.06,12.64-68.74,33.55-3.57-11.59,1.61-21.11,4.29-31.36-4.52,1.66-8,4.13-11.84,6.05-13.76,7-27.06,15.47-41.57,20.25-24.84,8.17-51.16,6.5-77,8.25-18.22,1.23-36.42,4.31-54.3,8.13-9.07,1.93-17.4,7.31-26.61,11.37,1.6-15.76,11.42-26.22,23.34-37.14-36.39-7.86-69.35-3.52-102.11,12.35,2.32-15.57,12.82-25.23,21.14-37.94-20.27-1.33-37.77,1.89-54.89,8.09s-34,13.06-48.29,26c1.52-8.76,3.36-17.3,6.84-25.11,3.57-8,8.75-15.31,14-24.19-24.52,4.53-45.38,13.2-63.16,28.73-8.12,7.09-12.79,16.08-14.9,26.58-1,5.14-2.56,10.17-3.86,15.25l-1.91.29c-2.72-20-9-37.89-27-49.33-16.36-10.39-33.44-18.46-54.93-21,11.47,15.75,20.23,30.58,21.26,49.92-25.36-25.93-90.79-42.11-102.24-32.89,8.26,10.37,17.67,20.29,20,33.23-17-4.47-33.13-10.1-49.76-12.72s-33.73-2.41-51.65,3.24c12,10.35,21.27,21,22.9,36.88-41.85-18-44.39-18.42-92.08-20.45-15.78-.67-31.57-1.67-47.28-3.24-24.17-2.41-44.83-13.55-64.43-27.09-2.24-1.54-5-2.36-9.59-4.5,5.66,11.73,9.55,21.26,6.46,32.87-26.95-33.16-95.81-42.23-117.26-32.31,23.86,8.26,35,19.08,37.41,36.36-43-25.7-118.35-4.12-139.3,18.31,11.32,0,23.42-1.07,35.24.3a53.49,53.49,0,0,1,32.59,15.76c-23.22-3.21-43.3,3.87-61.57,16.95-17.72,12.69-31.26,29.1-41.94,48.29,13.67-4.76,26.77-9.78,42.14-4.85-43.65,23.5-48.47,91.55-32.78,116.1,9.21-11,17.63-22.72,32.3-30.49-1.31,3.22-1.82,4.58-2.4,5.9-6.17,14-7.77,28.17-3.58,43.15,5.44,19.47,25.91,35.83,48.49,37.91,16.45,1.52,37.5-11.31,45.37-27.65,4.89-10.15,4.2-11.48-6.68-12.91C426,355.12,414.08,343.42,414.09,332c18.83,1.2,34.87-5.87,48.68-18.13,13.6-12.08,24-26.66,32.8-43.43-16.63-3.69-28.32-11.77-33.87-29.57,12.72,5.48,24.13,8.05,35.61,3.71a180.3,180.3,0,0,0,27.26-12.64c11.14-6.48,21.6-14.11,32.28-21.35.9-.6,1.26-2,1.81-2.91L542.29,195l.7-2.3C585.54,200.17,623.08,190.21,655,160.62ZM724.29,730.5c.34,18.77,3.93,36.74,13.12,53.24,10.14,18.18,25.51,29.25,47.91,32.14-13.1,8-26.58,4.78-39.26,6.93,25.06,27.94,56.3,38.34,93,34.36.1,1,.19,2,.29,3l-31.64,14.06c16.65,11.21,35.34,14,53.55,17.22,18.56,3.26,37.33,2.49,56.86-5.51-6.45,17.1-18,27-30.37,36.72,31.45-.38,57.31-13.66,81.09-34.73,1.22,18.14-6.44,31.87-14.31,46.69h91.56c-8.59-14.67-15.7-28.2-14-46.09,24,20.6,49.46,34.06,80.22,34.31-5.45-5.9-11.91-10.28-17-15.87s-8.73-12.21-13-18.4c.51-.65,1-1.31,1.51-2,18.09,7.24,36.76,8.5,55.48,5,18.2-3.41,36.73-6.39,53.56-17.28l-31.42-14.14c.26-.94.51-1.88.77-2.82,17.4,1.24,34.63.91,51-5.55,16.07-6.34,30.75-14.67,42.63-29.91-14.29-.92-27.35,1.48-40.84-6.1,21.91-2.68,37-13.06,47.06-30.28,9.79-16.67,13.61-35,13.71-54.41-11.28,13-23.15,24.41-40.36,28.84,10.22-14.49,14.31-30.85,16.25-47.84,1.92-16.77,4.71-33.67-2.6-51.49-9.39,34-12.71,40.53-22.36,43.91,10.71-47.58-.07-89.06-33.5-124.14.17,11.39,2.21,22.56,1.88,33.66s-2.47,22.22-10,33.82c-4-45.61-32.19-72.43-65.22-96.35,6.09,19.41,10.08,38.71,5.56,56.93-8.42-15.38-16.16-32.32-26.46-47.53-10.46-15.47-24.83-27.41-44.37-35.56,12.48,24.8,14,29.77,11.17,37.06-1.79-1.65-3.53-3.14-5.13-4.77-14.2-14.48-31.06-24.78-49.8-32.33a26.28,26.28,0,0,0-20.92-.1c-19.21,7.79-36.57,18.23-50.82,33.5a46.79,46.79,0,0,1-5.15,4c-1.62-14.23,5.38-24.86,10.55-36.22-35.58,17.15-56.9,45.67-67.94,82.89-7-20-.52-38.65,3.64-57.61-32.74,24-60.44,51-65.5,94-11.52-20.87-11.25-42.66-6.9-65.21-34.32,35-44.08,76.74-33.69,126-16-13.06-20.86-28.64-22.92-45.92-7.23,34.67-4.5,67.8,13.67,99C753.17,757.64,747.74,753.55,724.29,730.5ZM1228.6,545.88c.11-6.09-4.22-11.13-9.47-11-6.59.13-19.41,11.28-17,16.32,2.63,5.5,9.1,9.84,14.85,12.91C1220.42,565.91,1228.47,553,1228.6,545.88Zm-456.9,0c0,7.19,8,20.07,11.51,18.22,5.75-3,12.15-7.38,14.84-12.86,2.48-5-10.19-16.19-16.86-16.3C775.71,534.88,771.69,539.52,771.7,545.9Z"/>
  <path class="cls-1" d="M952.48,1010.84c4-2.6,7.81-5.57,12-7.71s4.18-4.87,4.59-9.22c1.13-11.76-4.89-18.65-13.38-24.73-1.07-.76-1.57-2.31-2.43-3.64h95.31c-5.32,4.76-9.39,8.38-13.44,12-7.51,6.79-5.68,21.19,3.3,26,.22.12.44.27.67.39,20.72,10.76,20.76,10.88,44,2.76,36-12.58,73.17-15.51,110.75-12.11,24.29,2.2,47.88,8.55,69.34,20.8,9.92,5.66,20.24,11.46,19.48,25.69,4.52-4.19,5.73-12.1,2.16-19.65-3.19-6.74-7.37-13-11.3-19.41-7.49-12.14-13.08-24.71-10.76-39.53,1.14-7.28,4.12-10.48,12.5-11.14,25.49-2,51.15-4,76.19-8.83,32.59-6.32,55.42-27.6,73.47-54.57,6.62-9.9,13.66-19.54,21.1-28.83,1.76-2.2,6.19-3.94,8.92-3.42,46.92,8.84,92.18,21.85,129.33,54.12.51.44,1.34.52,3,1.12.11-16.72-8.17-28.72-20.39-41,31.72-9.9,62.45-11.1,93.53-6.17,31.34,5,61,14,84.51,40,2.3-15.78-4.41-27.08-12.61-39.64,3.44,1.09,5.42,1.37,7,2.29,21.6,12.25,43.59,23.87,64.6,37.06,28,17.61,41.57,43.84,41.69,77,0,4.08.51,8.15.85,13.26,10.67-4.26,13.88-13.45,18.66-22.57,1.49,1.86,3.17,3,3.39,4.36,5.29,33.12,7.61,66-9.62,96.89-10.72,19.2-26,33.3-47.1,40.71l.17,2.44c7.49.15,15.06,1.09,22.44.24s14.82-3.47,24.07-5.78c-12.88,28.13-28.46,52-53.26,68.78-25.32,17.1-52.74,23.17-84.83,13.35,12.25,17.17,25.33,29.41,44.54,34l-.21,2.22c-8.93,1.61-17.81,3.64-26.8,4.74-29.56,3.62-58.44.3-86.1-10.77-15.45-6.19-28.62-15.66-36.44-31.66-6.82,17.9-3.61,34.94,5.32,53.07-26.22,1.19-47.67-6.5-67.38-20.2-20-13.92-33.13-33-41.77-58.07-6.16,14.05-7.15,26.73-5.82,39.27s4.58,24.57,7.39,38.91c-29.5-16.73-52.34-37.68-65.3-68.11-13.11-30.81-11.73-61.27,4.75-91.87-9.83.3-15.3,5.22-19.87,11.2-9.13,11.92-14.35,25.63-17.62,40.17a49.82,49.82,0,0,1-4.28,12.45c-11.9-41.41-15.35-83.23-7.15-125.81l-2.41-1.34c-3.91,4.73-8.54,9-11.59,14.26-10.72,18.38-13.21,38.74-11,59.37,4.18,39.88,16.1,77.38,38.17,111.19,30.26,46.36,71.8,76.71,126.45,88.06,5.81,1.21,11.88,1.09,17.71,2.23,2,.39,5.22,2.57,5.34,4.14,2.68,33.61,19.53,61.2,37,88.56,13.13,20.52,22.37,42.56,25.66,66.88.27,1.95.86,3.85,1.78,7.88,7.74-23.29,6.31-45.25,5.92-67.9,2,.74,3.49.92,4.48,1.74,18.3,15.23,36.27,30.88,54.87,45.74,25.36,20.27,45.09,44.23,52.46,76.63,2.74,12.08,4.66,24.34,7.27,38.17,8.34-14.3,8.61-29.17,11.19-44.17,18.61,15.35,29.83,35.29,37.54,57.56,7.78,22.47,8,45.58,5.07,70.94,13.84-12.93,18.24-28,19.54-44.59l2.36.17c3.68,13.59,8.47,27,10.76,40.81,3,18.06,5.75,36.46,5.53,54.67-.46,39.11-14.43,72.22-48.49,94.57-.39.25-.57.82-1.5,2.26,16.54,3.3,31.62-.56,47.26-5.39-9.41,30.61-28.68,52.57-57.21,66s-57.91,13.28-87.81,3c10.77,18,27.08,28,46.81,34.71-3.82,7.71-10.69,11-17.34,12.24-35.19,6.65-70.2,7.83-102.59-10.8-9-5.15-16.2-13.29-25.29-21-.7,11.45,1.19,22.24,6.61,31.81,5.23,9.24,12.15,17.52,19.1,27.31-4.12-1-7.55-1.57-10.76-2.7-60.61-21.35-107.6-58.82-134.24-118.13-17.66-39.31-10.23-78.52,7.12-116.36,3.85-8.41,8.63-16.39,13-24.67-15.81-2.84-37.3,17.74-54.41,51.7-4.09-6-3.19-22.66,4.73-40.27,5.64-12.56,12.43-25.38,21.68-35.32,9.44-10.16,21.7-18.59,34.23-24.71,12.23-6,26.34-8.08,38.9-11.67-8.37-7.24-38.43-7-68.21,2.38,3.08-4.37,4.61-7.38,6.89-9.63,12.2-12,27.63-18,43.77-22.22,9.73-2.51,19.77-3.8,29.66-5.65,16.25-3,32.36-3.31,48.34,2.41-8.21-8.44-18.57-12.6-29.38-15.56-29.17-8-58.77-9.91-88.32-3-38.48,8.94-62.23,34.34-74.94,70.76-12.79,36.61-13,74-6.69,111.93,6.43,38.81,19.64,75,40.43,108.35a10.26,10.26,0,0,1,1.12,2.86c.12.42-.2,1-.7,2.88-27-8.35-48.28-23.92-63.86-47.07s-21.57-49.44-25.55-76.7c-9.9,20.35-9.94,42-9.17,63.89l-2,1c-2.33-2.7-5.61-5-6.81-8.17-3.76-9.84-8.18-19.77-9.72-30.05-3-20.45-5-41.11-6.22-61.76-1.88-32.76,8.16-61.72,30.37-86.2a51.4,51.4,0,0,0,3.4-4.22c.23-.32,0-1,0-1.92-12.94.87-24,6.39-34.6,13.7,11-50.17,42.37-80.94,90.43-96.51-18.34-3.83-35.4-2.41-52.18,9,.49-2.69.54-5.56,1.55-8,11.38-28,22.91-56,34.39-84,1-2.52,2-5.08,3-7.63l-1.56-1.54c-4.73,2.8-9.62,5.37-14.16,8.44-26.21,17.77-44.15,42.62-59.31,69.79A362.31,362.31,0,0,0,1286,1620.92c-8.5,51.14-8.78,102.13,6.59,152.21,2.92,9.52,8.28,18.34,13,27.23,4.11,7.76,3.78,8.38-5,10.4-30.78,7-59.54-.72-87.92-11.57-1.69-.65-3.35-1.38-5.07-1.91a7.24,7.24,0,0,0-2.25.08c6.45,14.91,30.38,29.09,62.46,37.17-7.41,7.11-52.14,12.88-83.55,11.06-26.55-1.53-52.21-9-80.16-28.95,3,6.39,5.44,13.17,9.22,19.07a109.75,109.75,0,0,0,14.2,17.36c5.16,5.23,11.18,9.6,18.52,15.78-21.94,2.39-40.19-3.28-57.73-12.31-17.86-9.18-31.93-22.64-43.9-39.09a80.07,80.07,0,0,0,1.21,33.33c2.71,11,5.8,21.85,9.34,35.07-4.69-2.5-8.33-3.92-11.38-6.14-16.22-11.79-25.71-28.16-30.71-47.2-3.08-11.75-5.17-23.75-7.94-35.58-.9-3.84-2.54-7.52-3.84-11.27l-2.49.13c-1.93,8.4-4.11,16.75-5.74,25.21-4,20.77-9.43,40.89-23.63,57.4-6,7-12.7,13.37-23.38,16.87,3.19-12.07,6.7-22.72,8.7-33.65,2-11.1,2.58-22.46,2.61-34.24-12.9,15.7-26.58,29.78-44.47,39-17.6,9.08-35.91,14.8-57.14,12.49,9-8.5,17.86-15.29,24.67-23.71,6.62-8.2,11.15-18.08,15.59-28.26-51.24,38.41-106.68,32.43-164.55,19.54,13.31-5.11,25.24-8.91,36.45-14.23A68.33,68.33,0,0,0,795.93,1797c-33.84,12.36-67.66,23.28-104.39,11.12,5.47-11.2,11.4-21,15.18-31.53,11.06-30.85,14.09-63.17,13.47-95.6-1.32-68.37-19.1-132.3-54.92-190.85-14-23-30.76-43.59-53.76-58.34-3.84-2.45-7.91-4.54-11.87-6.79l-1.64,1.33c4.49,11.08,8.93,22.17,13.47,33.23,7.76,18.89,15.63,37.74,23.29,56.67a23.2,23.2,0,0,1,1.24,9.87c-15.94-11.69-33-12.71-51.17-9.2,48.07,15.61,79.31,46.37,91.09,96l-34.38-14.75-1.77,2.61c3.19,4.07,6.27,8.22,9.58,12.18,17,20.34,24.41,43.84,24.67,70.2a366.25,366.25,0,0,1-8.25,81.72c-1.56,7.19-5.12,14-8.32,20.74-1.16,2.43-4,4.07-7,5.71.9-22.73-1.65-44.46-9.91-65.78-6.65,58.29-29.68,104.51-90.31,124.14.65-1.92.95-4,2-5.72a276.43,276.43,0,0,0,37-92.44c9.52-46.91,11.17-93.58-9-138.62-18.19-40.68-51.1-59.7-94.32-62.3-25.77-1.55-51.26.76-75.51,10.54-6,2.44-11.56,6.08-17,9.83,38.39-6.8,74.21.44,108.14,17.75,7.4,3.77,13.19,10.73,18.94,17.74-23.28-10.07-46-7.81-69.11-.65,29,3.29,54.68,13.36,74.58,35,19.66,21.43,29.51,46.64,28.13,75.68-7.56-11.13-14.16-22.6-22.49-32.63a55.44,55.44,0,0,0-33.08-19.45c6.65,14.62,13.49,27.91,18.85,41.78,19.77,51.12,11.53,98.09-22.64,140.55C464.5,1884.41,427.1,1912,380.4,1926a39.24,39.24,0,0,1-4.46,1.21,6.13,6.13,0,0,1-2.2-.53c6.39-9,13.58-17.35,18.75-26.82a51,51,0,0,0,5.67-32.87c-31.21,40.5-74.16,39.37-117.29,35.43-16.08-1.47-22.24-6.72-26.54-14.54,18.94-6.34,35-16.68,46.18-34.26-44.58,13.72-84.6,7.63-118.8-25.17-14.11-13.52-25.81-33.39-26.5-45.62,15.19,5.35,30.24,10.14,47.89,6.66-2.94-2.32-4.6-3.74-6.37-5-24.5-17.7-36.86-42.35-42.37-71.51-6.38-33.73,1.37-65.8,9.6-97.94,1.35-5.25,3.13-10.39,4.77-15.56.12-.4.69-.66,2-1.8,2.63,16.18,6,31.62,20.14,44.08-7-50.88,6.29-93.42,41.89-130.06,3.29,16.39,6.19,30.81,9.08,45.23l3.15-.27q2.34-13.56,4.67-27.11c6-34.85,24-62.22,51.33-84.18,19.76-15.89,38.95-32.48,58.42-48.73a32.93,32.93,0,0,1,4.15-2.27c-.63,23-1.73,45.11,6.79,66.51,1.15-6.32,2.17-12.66,3.46-19,5.11-24.89,18.28-46,31.61-67,14.46-22.76,25.86-46.53,28.4-73.89.18-2,4.13-5,6.55-5.26a177.32,177.32,0,0,0,66.5-19.8c50.92-27,83.4-69.4,102-123.11,8.49-24.55,14.27-49.8,13.14-76-.87-20.3-5.43-39.54-21.08-54.27-.72-.68-1.6-1.19-4.62-3.43,8.3,44.68,5.33,86.93-7.54,129.2-1.19-4.38-2-8.91-3.64-13.12-4.86-12.45-9.39-25.11-15.35-37-3.82-7.63-10.42-13.41-21.46-14.5,23.18,47.27,14.59,89.42-18.54,127.37a120.37,120.37,0,0,1-42.61,31.49c8.6-25,10.8-49.65,2.49-77.29-19.79,50.69-55,76.93-110,79.62,8.52-18.56,11.88-35.58,6.59-53.51-1.49.37-2.27.35-2.42.64-10.66,20.52-29.4,30-50.3,35.75-31.26,8.62-62.82,9.52-94.4,1.24a58.39,58.39,0,0,1-5.49-2.3c21-4.77,33.6-17.37,46.27-33.89-40.61,10.82-73.38-.36-101.32-27.3-15.69-15.14-27.37-33.08-36.15-54.83,9.36,2.14,16.7,4.47,24.21,5.34,7.26.85,14.69.19,22.34-.92-32.41-14-51.73-38.22-58.12-71.95-5.62-29.67-3-62.27,4.28-72.08,4.36,8.83,7.59,18.34,18.21,22.73.37-2.43,1-4.35.92-6.25-1.43-40.52,16.37-70.23,51-90.19,18.38-10.58,37.08-20.6,55.67-30.82,1.51-.83,3.25-1.24,7.38-2.76-8.53,12.89-14.89,24.42-13.2,40.61,23.16-26.4,52.89-35.24,84-40.34s62.08-3.93,93.88,6c-11.38,12.18-20.14,24-20,41.49,2.63-1.8,4.33-2.76,5.79-4,28.88-24.24,63.05-37.12,99-46.09,8.28-2.07,16.7-3.57,25-5.66,5.74-1.45,9.6-.08,13.1,5,8.65,12.58,18,24.68,26.82,37.15,20.1,28.37,48.11,43.54,81.91,48.09,21,2.82,42.22,4.21,63.38,5.67,6.68.46,8.94,3.38,9.6,9.49,1.72,15.77-2.65,29.57-12,42.18-6.34,8.49-12.91,17.11-11.9,28.7.21,2.39.9,4.73,1.79,9.2,9.1-23.23,28.62-29.38,47-36.39,31.89-12.14,65.52-13.27,98.69-10,23.33,2.32,46.32,9.48,69,16.05,8.17,2.37,15,1.41,22.46-.33-4,2.8-8,5.56-11.9,8.4-13.4,9.69-27.58,18.47-40,29.27-47.51,41.28-70.34,93.57-67.28,156.7.34,7.12,1.86,14.17,2.83,21.25l2.09-.11c8.72-20.13,19.36-38.93,35.6-54.11,5.43,12.15,9.6,23.47,15.39,33.9,6.06,10.94,15.82,18.49,27.44,24.4a17,17,0,0,0,.49-3.14,20.67,20.67,0,0,0-.68-3.82c-11.15-40.36-7.72-79.86,7.07-118.66,8.93-23.4,19.55-46.21,38.63-62.9,10.65-9.31,10.68-19.73,10-31.41-.3-5.36-3.31-6.52-8-4.57Zm0,0c4-2.6,7.81-5.57,12-7.71s4.18-4.87,4.59-9.22c1.13-11.76-4.89-18.65-13.38-24.73-1.07-.76-1.57-2.31-2.43-3.64h95.31c-5.32,4.76-9.39,8.38-13.44,12-7.51,6.79-5.68,21.19,3.3,26,.22.12.44.27.67.39,20.72,10.76,20.76,10.88,44,2.76,36-12.58,73.17-15.51,110.75-12.11,24.29,2.2,47.88,8.55,69.34,20.8,9.92,5.66,20.24,11.46,19.48,25.69,4.52-4.19,5.73-12.1,2.16-19.65-3.19-6.74-7.37-13-11.3-19.41-7.49-12.14-13.08-24.71-10.76-39.53,1.14-7.28,4.12-10.48,12.5-11.14,25.49-2,51.15-4,76.19-8.83,32.59-6.32,55.42-27.6,73.47-54.57,6.62-9.9,13.66-19.54,21.1-28.83,1.76-2.2,6.19-3.94,8.92-3.42,46.92,8.84,92.18,21.85,129.33,54.12.51.44,1.34.52,3,1.12.11-16.72-8.17-28.72-20.39-41,31.72-9.9,62.45-11.1,93.53-6.17,31.34,5,61,14,84.51,40,2.3-15.78-4.41-27.08-12.61-39.64,3.44,1.09,5.42,1.37,7,2.29,21.6,12.25,43.59,23.87,64.6,37.06,28,17.61,41.57,43.84,41.69,77,0,4.08.51,8.15.85,13.26,10.67-4.26,13.88-13.45,18.66-22.57,1.49,1.86,3.17,3,3.39,4.36,5.29,33.12,7.61,66-9.62,96.89-10.72,19.2-26,33.3-47.1,40.71l.17,2.44c7.49.15,15.06,1.09,22.44.24s14.82-3.47,24.07-5.78c-12.88,28.13-28.46,52-53.26,68.78-25.32,17.1-52.74,23.17-84.83,13.35,12.25,17.17,25.33,29.41,44.54,34l-.21,2.22c-8.93,1.61-17.81,3.64-26.8,4.74-29.56,3.62-58.44.3-86.1-10.77-15.45-6.19-28.62-15.66-36.44-31.66-6.82,17.9-3.61,34.94,5.32,53.07-26.22,1.19-47.67-6.5-67.38-20.2-20-13.92-33.13-33-41.77-58.07-6.16,14.05-7.15,26.73-5.82,39.27s4.58,24.57,7.39,38.91c-29.5-16.73-52.34-37.68-65.3-68.11-13.11-30.81-11.73-61.27,4.75-91.87-9.83.3-15.3,5.22-19.87,11.2-9.13,11.92-14.35,25.63-17.62,40.17a49.82,49.82,0,0,1-4.28,12.45c-11.9-41.41-15.35-83.23-7.15-125.81l-2.41-1.34c-3.91,4.73-8.54,9-11.59,14.26-10.72,18.38-13.21,38.74-11,59.37,4.18,39.88,16.1,77.38,38.17,111.19,30.26,46.36,71.8,76.71,126.45,88.06,5.81,1.21,11.88,1.09,17.71,2.23,2,.39,5.22,2.57,5.34,4.14,2.68,33.61,19.53,61.2,37,88.56,13.13,20.52,22.37,42.56,25.66,66.88.27,1.95.86,3.85,1.78,7.88,7.74-23.29,6.31-45.25,5.92-67.9,2,.74,3.49.92,4.48,1.74,18.3,15.23,36.27,30.88,54.87,45.74,25.36,20.27,45.09,44.23,52.46,76.63,2.74,12.08,4.66,24.34,7.27,38.17,8.34-14.3,8.61-29.17,11.19-44.17,18.61,15.35,29.83,35.29,37.54,57.56,7.78,22.47,8,45.58,5.07,70.94,13.84-12.93,18.24-28,19.54-44.59l2.36.17c3.68,13.59,8.47,27,10.76,40.81,3,18.06,5.75,36.46,5.53,54.67-.46,39.11-14.43,72.22-48.49,94.57-.39.25-.57.82-1.5,2.26,16.54,3.3,31.62-.56,47.26-5.39-9.41,30.61-28.68,52.57-57.21,66s-57.91,13.28-87.81,3c10.77,18,27.08,28,46.81,34.71-3.82,7.71-10.69,11-17.34,12.24-35.19,6.65-70.2,7.83-102.59-10.8-9-5.15-16.2-13.29-25.29-21-.7,11.45,1.19,22.24,6.61,31.81,5.23,9.24,12.15,17.52,19.1,27.31-4.12-1-7.55-1.57-10.76-2.7-60.61-21.35-107.6-58.82-134.24-118.13-17.66-39.31-10.23-78.52,7.12-116.36,3.85-8.41,8.63-16.39,13-24.67-15.81-2.84-37.3,17.74-54.41,51.7-4.09-6-3.19-22.66,4.73-40.27,5.64-12.56,12.43-25.38,21.68-35.32,9.44-10.16,21.7-18.59,34.23-24.71,12.23-6,26.34-8.08,38.9-11.67-8.37-7.24-38.43-7-68.21,2.38,3.08-4.37,4.61-7.38,6.89-9.63,12.2-12,27.63-18,43.77-22.22,9.73-2.51,19.77-3.8,29.66-5.65,16.25-3,32.36-3.31,48.34,2.41-8.21-8.44-18.57-12.6-29.38-15.56-29.17-8-58.77-9.91-88.32-3-38.48,8.94-62.23,34.34-74.94,70.76-12.79,36.61-13,74-6.69,111.93,6.43,38.81,19.64,75,40.43,108.35a10.26,10.26,0,0,1,1.12,2.86c.12.42-.2,1-.7,2.88-27-8.35-48.28-23.92-63.86-47.07s-21.57-49.44-25.55-76.7c-9.9,20.35-9.94,42-9.17,63.89l-2,1c-2.33-2.7-5.61-5-6.81-8.17-3.76-9.84-8.18-19.77-9.72-30.05-3-20.45-5-41.11-6.22-61.76-1.88-32.76,8.16-61.72,30.37-86.2a51.4,51.4,0,0,0,3.4-4.22c.23-.32,0-1,0-1.92-12.94.87-24,6.39-34.6,13.7,11-50.17,42.37-80.94,90.43-96.51-18.34-3.83-35.4-2.41-52.18,9,.49-2.69.54-5.56,1.55-8,11.38-28,22.91-56,34.39-84,1-2.52,2-5.08,3-7.63l-1.56-1.54c-4.73,2.8-9.62,5.37-14.16,8.44-26.21,17.77-44.15,42.62-59.31,69.79A362.31,362.31,0,0,0,1286,1620.92c-8.5,51.14-8.78,102.13,6.59,152.21,2.92,9.52,8.28,18.34,13,27.23,4.11,7.76,3.78,8.38-5,10.4-30.78,7-59.54-.72-87.92-11.57-1.69-.65-3.35-1.38-5.07-1.91a7.24,7.24,0,0,0-2.25.08c6.45,14.91,30.38,29.09,62.46,37.17-7.41,7.11-52.14,12.88-83.55,11.06-26.55-1.53-52.21-9-80.16-28.95,3,6.39,5.44,13.17,9.22,19.07a109.75,109.75,0,0,0,14.2,17.36c5.16,5.23,11.18,9.6,18.52,15.78-21.94,2.39-40.19-3.28-57.73-12.31-17.86-9.18-31.93-22.64-43.9-39.09a80.07,80.07,0,0,0,1.21,33.33c2.71,11,5.8,21.85,9.34,35.07-4.69-2.5-8.33-3.92-11.38-6.14-16.22-11.79-25.71-28.16-30.71-47.2-3.08-11.75-5.17-23.75-7.94-35.58-.9-3.84-2.54-7.52-3.84-11.27l-2.49.13c-1.93,8.4-4.11,16.75-5.74,25.21-4,20.77-9.43,40.89-23.63,57.4-6,7-12.7,13.37-23.38,16.87,3.19-12.07,6.7-22.72,8.7-33.65,2-11.1,2.58-22.46,2.61-34.24-12.9,15.7-26.58,29.78-44.47,39-17.6,9.08-35.91,14.8-57.14,12.49,9-8.5,17.86-15.29,24.67-23.71,6.62-8.2,11.15-18.08,15.59-28.26-51.24,38.41-106.68,32.43-164.55,19.54,13.31-5.11,25.24-8.91,36.45-14.23A68.33,68.33,0,0,0,795.93,1797c-33.84,12.36-67.66,23.28-104.39,11.12,5.47-11.2,11.4-21,15.18-31.53,11.06-30.85,14.09-63.17,13.47-95.6-1.32-68.37-19.1-132.3-54.92-190.85-14-23-30.76-43.59-53.76-58.34-3.84-2.45-7.91-4.54-11.87-6.79l-1.64,1.33c4.49,11.08,8.93,22.17,13.47,33.23,7.76,18.89,15.63,37.74,23.29,56.67a23.2,23.2,0,0,1,1.24,9.87c-15.94-11.69-33-12.71-51.17-9.2,48.07,15.61,79.31,46.37,91.09,96l-34.38-14.75-1.77,2.61c3.19,4.07,6.27,8.22,9.58,12.18,17,20.34,24.41,43.84,24.67,70.2a366.25,366.25,0,0,1-8.25,81.72c-1.56,7.19-5.12,14-8.32,20.74-1.16,2.43-4,4.07-7,5.71.9-22.73-1.65-44.46-9.91-65.78-6.65,58.29-29.68,104.51-90.31,124.14.65-1.92.95-4,2-5.72a276.43,276.43,0,0,0,37-92.44c9.52-46.91,11.17-93.58-9-138.62-18.19-40.68-51.1-59.7-94.32-62.3-25.77-1.55-51.26.76-75.51,10.54-6,2.44-11.56,6.08-17,9.83,38.39-6.8,74.21.44,108.14,17.75,7.4,3.77,13.19,10.73,18.94,17.74-23.28-10.07-46-7.81-69.11-.65,29,3.29,54.68,13.36,74.58,35,19.66,21.43,29.51,46.64,28.13,75.68-7.56-11.13-14.16-22.6-22.49-32.63a55.44,55.44,0,0,0-33.08-19.45c6.65,14.62,13.49,27.91,18.85,41.78,19.77,51.12,11.53,98.09-22.64,140.55C464.5,1884.41,427.1,1912,380.4,1926a39.24,39.24,0,0,1-4.46,1.21,6.13,6.13,0,0,1-2.2-.53c6.39-9,13.58-17.35,18.75-26.82a51,51,0,0,0,5.67-32.87c-31.21,40.5-74.16,39.37-117.29,35.43-16.08-1.47-22.24-6.72-26.54-14.54,18.94-6.34,35-16.68,46.18-34.26-44.58,13.72-84.6,7.63-118.8-25.17-14.11-13.52-25.81-33.39-26.5-45.62,15.19,5.35,30.24,10.14,47.89,6.66-2.94-2.32-4.6-3.74-6.37-5-24.5-17.7-36.86-42.35-42.37-71.51-6.38-33.73,1.37-65.8,9.6-97.94,1.35-5.25,3.13-10.39,4.77-15.56.12-.4.69-.66,2-1.8,2.63,16.18,6,31.62,20.14,44.08-7-50.88,6.29-93.42,41.89-130.06,3.29,16.39,6.19,30.81,9.08,45.23l3.15-.27q2.34-13.56,4.67-27.11c6-34.85,24-62.22,51.33-84.18,19.76-15.89,38.95-32.48,58.42-48.73a32.93,32.93,0,0,1,4.15-2.27c-.63,23-1.73,45.11,6.79,66.51,1.15-6.32,2.17-12.66,3.46-19,5.11-24.89,18.28-46,31.61-67,14.46-22.76,25.86-46.53,28.4-73.89.18-2,4.13-5,6.55-5.26a177.32,177.32,0,0,0,66.5-19.8c50.92-27,83.4-69.4,102-123.11,8.49-24.55,14.27-49.8,13.14-76-.87-20.3-5.43-39.54-21.08-54.27-.72-.68-1.6-1.19-4.62-3.43,8.3,44.68,5.33,86.93-7.54,129.2-1.19-4.38-2-8.91-3.64-13.12-4.86-12.45-9.39-25.11-15.35-37-3.82-7.63-10.42-13.41-21.46-14.5,23.18,47.27,14.59,89.42-18.54,127.37a120.37,120.37,0,0,1-42.61,31.49c8.6-25,10.8-49.65,2.49-77.29-19.79,50.69-55,76.93-110,79.62,8.52-18.56,11.88-35.58,6.59-53.51-1.49.37-2.27.35-2.42.64-10.66,20.52-29.4,30-50.3,35.75-31.26,8.62-62.82,9.52-94.4,1.24a58.39,58.39,0,0,1-5.49-2.3c21-4.77,33.6-17.37,46.27-33.89-40.61,10.82-73.38-.36-101.32-27.3-15.69-15.14-27.37-33.08-36.15-54.83,9.36,2.14,16.7,4.47,24.21,5.34,7.26.85,14.69.19,22.34-.92-32.41-14-51.73-38.22-58.12-71.95-5.62-29.67-3-62.27,4.28-72.08,4.36,8.83,7.59,18.34,18.21,22.73.37-2.43,1-4.35.92-6.25-1.43-40.52,16.37-70.23,51-90.19,18.38-10.58,37.08-20.6,55.67-30.82,1.51-.83,3.25-1.24,7.38-2.76-8.53,12.89-14.89,24.42-13.2,40.61,23.16-26.4,52.89-35.24,84-40.34s62.08-3.93,93.88,6c-11.38,12.18-20.14,24-20,41.49,2.63-1.8,4.33-2.76,5.79-4,28.88-24.24,63.05-37.12,99-46.09,8.28-2.07,16.7-3.57,25-5.66,5.74-1.45,9.6-.08,13.1,5,8.65,12.58,18,24.68,26.82,37.15,20.1,28.37,48.11,43.54,81.91,48.09,21,2.82,42.22,4.21,63.38,5.67,6.68.46,8.94,3.38,9.6,9.49,1.72,15.77-2.65,29.57-12,42.18-6.34,8.49-12.91,17.11-11.9,28.7.21,2.39.9,4.73,1.79,9.2,9.1-23.23,28.62-29.38,47-36.39,31.89-12.14,65.52-13.27,98.69-10,23.33,2.32,46.32,9.48,69,16.05,8.17,2.37,15,1.41,22.46-.33-4,2.8-8,5.56-11.9,8.4-13.4,9.69-27.58,18.47-40,29.27-47.51,41.28-70.34,93.57-67.28,156.7.34,7.12,1.86,14.17,2.83,21.25l2.09-.11c8.72-20.13,19.36-38.93,35.6-54.11,5.43,12.15,9.6,23.47,15.39,33.9,6.06,10.94,15.82,18.49,27.44,24.4a17,17,0,0,0,.49-3.14,20.67,20.67,0,0,0-.68-3.82c-11.15-40.36-7.72-79.86,7.07-118.66,8.93-23.4,19.55-46.21,38.63-62.9,10.65-9.31,10.68-19.73,10-31.41-.3-5.36-3.31-6.52-8-4.57Zm211.33,214.6c7.8-43.81,1.81-85.3-20.32-123.93-25.44-44.41-63.91-73.87-110.68-96.13,0,9.57-.4,17.33.19,25a17.21,17.21,0,0,0,4.06,9.42c47.09,53.16,63.34,114.18,47.3,183.57-.47,2-.68,4.11-1.26,7.74,25.2-13.1,36.53-33.93,42.09-60.31C1143.16,1187.08,1153.37,1206.05,1163.81,1225.44Zm-98.6-208.59c10.67,8.63,19.8,14.28,32.75,13.82,44.56-1.58,88,5.91,130.78,18.12,11.66,3.32,24.27,3.75,36.51,4.47a11.8,11.8,0,0,0,12.4-10.76c.43-4.63-1.82-11.1-5.22-14.15a79.6,79.6,0,0,0-22-14.12c-54.61-23-110.11-21.07-165.89-4.6C1078.4,1011.46,1072.46,1014.12,1065.21,1016.85Zm-130.36,1c-2.19-1.27-3.79-2.72-5.64-3.2-21.67-5.54-43.1-13.28-65.13-15.84-34-4-68.29-2.53-100.81,10.07-12.11,4.69-23.54,11.49-34.62,18.39a13.2,13.2,0,0,0-5.45,15.79c2.07,6.27,6.64,10.36,13.16,10.28,9.46-.11,19.1-.41,28.32-2.31,15.65-3.22,30.93-8.24,46.56-11.62a443.74,443.74,0,0,1,97.86-9.61C919.54,1029.91,927.12,1024.83,934.85,1017.87Zm93.31,4.84.57,0c-.86-10.83-1.5-21.69-2.66-32.49-.75-6.88-5.08-11.92-11.73-12.87A130.57,130.57,0,0,0,986.5,976c-11.69.87-15.39,8-13.39,19.55,1.74,10,3.86,20.63,2.18,30.36-2,11.63,4,21.14,16,20.56,8.27-.4,16.53-1.31,24.8-1.79,7.59-.43,11.09-5,12-11.84C1028.52,1029.5,1028.16,1026.08,1028.16,1022.71Z"/>
  <path class="cls-1" d="M655,160.62c-31.89,29.59-69.43,39.55-112,32.11l-.7,2.3,16.37,12.63c-.55.92-.91,2.31-1.81,2.91-10.68,7.24-21.14,14.87-32.28,21.35a180.3,180.3,0,0,1-27.26,12.64c-11.48,4.34-22.89,1.77-35.61-3.71,5.55,17.8,17.24,25.88,33.87,29.57-8.79,16.77-19.2,31.35-32.8,43.43C449,326.11,432.92,333.18,414.09,332c0,11.44,11.87,23.14,24.33,24.79,10.88,1.43,11.57,2.76,6.68,12.91-7.87,16.34-28.92,29.17-45.37,27.65-22.58-2.08-43.05-18.44-48.49-37.91-4.19-15-2.59-29.17,3.58-43.15.58-1.32,1.09-2.68,2.4-5.9-14.67,7.77-23.09,19.47-32.3,30.49-15.69-24.55-10.87-92.6,32.78-116.1-15.37-4.93-28.47.09-42.14,4.85,10.68-19.19,24.22-35.6,41.94-48.29,18.27-13.08,38.35-20.16,61.57-16.95a53.49,53.49,0,0,0-32.59-15.76c-11.82-1.37-23.92-.3-35.24-.3,20.95-22.43,96.26-44,139.3-18.31-2.43-17.28-13.55-28.1-37.41-36.36,21.45-9.92,90.31-.85,117.26,32.31,3.09-11.61-.8-21.14-6.46-32.87,4.62,2.14,7.35,3,9.59,4.5,19.6,13.54,40.26,24.68,64.43,27.09,15.71,1.57,31.5,2.57,47.28,3.24,47.69,2,50.23,2.48,92.08,20.45-1.63-15.86-10.9-26.53-22.9-36.88,17.92-5.65,35-5.86,51.65-3.24s32.8,8.25,49.76,12.72c-2.31-12.94-11.72-22.86-20-33.23,11.45-9.22,76.88,7,102.24,32.89-1-19.34-9.79-34.17-21.26-49.92,21.49,2.52,38.57,10.59,54.93,21,18,11.44,24.26,29.29,27,49.33l1.91-.29c1.3-5.08,2.82-10.11,3.86-15.25,2.11-10.5,6.78-19.49,14.9-26.58,17.78-15.53,38.64-24.2,63.16-28.73-5.22,8.88-10.4,16.17-14,24.19-3.48,7.81-5.32,16.35-6.84,25.11,14.28-12.92,31.11-19.76,48.29-26s34.62-9.42,54.89-8.09c-8.32,12.71-18.82,22.37-21.14,37.94,32.76-15.87,65.72-20.21,102.11-12.35-11.92,10.92-21.74,21.38-23.34,37.14,9.21-4.06,17.54-9.44,26.61-11.37,17.88-3.82,36.08-6.9,54.3-8.13,25.81-1.75,52.13-.08,77-8.25,14.51-4.78,27.81-13.27,41.57-20.25,3.8-1.92,7.32-4.39,11.84-6.05-2.68,10.25-7.86,19.77-4.29,31.36,18.68-20.91,43.22-28.79,68.74-33.55,15.89-3,32.28-3.21,48.83,1-19.12,5.66-33.13,16.33-38.39,36.17,50.88-20.78,97-9.81,140.81,19.55-25.08-4-48.48-1.91-70.29,15.92,52.32-4.48,80.35,27.33,105.34,64.65-13.48-3.52-26.46-9.89-42.36-4,21.88,11.46,31.81,30.41,37.63,51.79,5.78,21.22,4.8,42.35-3.44,63.77l-30.63-30.4-1.88,1.7c1.86,6,4.07,11.94,5.53,18.05a54.32,54.32,0,0,1-47.44,67c-19.71,2.06-42.92-13.23-49.26-32.26-2.19-6.6,1.57-7.37,6.64-7.9,14-1.47,25-11.31,27.11-24.75-23.07,1-41.76-8.73-56.55-25.41-9.63-10.87-17.61-23.21-27.29-36.17,18.28-3.61,29.66-11.9,35.29-28.91-2.87.81-4.5,1.14-6,1.73-15.43,5.93-30.52,3.54-44.13-4.28-16-9.18-31-20.15-47-30.76l16.58-13.26-.78-2.47c-20.13,4-40,3.52-59.57-2A119.6,119.6,0,0,1,1344.73,160c-3.38,9.37-.29,17.18,2.67,24.62,8.13,20.4,23.73,34.33,41.9,45.48,16.75,10.29,34.06,19.66,50.92,29.78,26.2,15.74,39.38,41,49.29,68.53,7.86,21.87,15.26,43.92,23.67,65.58,6.29,16.21,16.74,29.67,30.6,40.43,2.19,1.7,4.51,4.89,4.56,7.44.69,35.54-3.06,70.3-19.94,102.44-2.74,5.21-6,10.15-10.19,17.1,14.23-4.84,25.1-11.21,33.31-22.11l2.67,1.53c-1.16,6.86-1.9,13.83-3.58,20.56-4.61,18.53-8.52,37.34-14.75,55.33-8.66,25-24,45.14-49.78,55.57l.45,2.74c8.64,0,17.39.84,25.9-.23,8.82-1.11,17.41-4.08,28.18-6.75-12.49,26.73-33.66,43-55.46,58.3-22.36,15.73-46.79,26.55-75.05,27.17,18.32,13,39.29,13.82,62.78,12.48-15.25,18.56-30.27,33.61-49,44.45-19.1,11.05-39.5,15.67-62.68,9.11,7.16,18,16,31.63,34.1,37.64-29.68,18.65-60.28,20.32-92.86,8.61,1.9,16.93,13,25.59,25.65,33.94-11.07,8.45-22.62,12.58-34.51,15.95-1.49.42-3.15.38-4.55,1-6.4,2.7-10.16,1.58-12.74-5.78-3.87-11-14.25-12.78-24.2-13.53-9.54-.73-19.16-.3-28.75-.46-2.38,0-4.76-.4-7.14-.61-.16-.69-.33-1.38-.49-2.06,7.28-4.21,14.52-8.47,21.83-12.62,20.38-11.58,40-24.11,53.94-43.61,21.53-30.1,28-64.12,25.08-100.24-4-50.08-25.16-92.89-57.07-130.86-3.58-4.26-4.45-6.85-.26-11.61,12-13.65,12-34.82.8-52-14-21.58-43.3-31.25-64.58-20.65-5.36,2.68-10.06,7.21-14.15,11.71-3.11,3.42-5.22,4.79-9.67,2.32-36.57-20.27-76.25-31.56-116.87-40.15-42.11-8.92-83.8-6.36-125.42,3.32-35.15,8.18-69.1,19.47-101.12,36.35-2.13,1.12-7.19.63-8.35-1-19.72-27-58.14-19.31-77.34,4.2-13.07,16-15.77,43.38-.66,57.63,3.95,3.72,1.3,6.29-1.12,9.15-18.52,21.94-33.47,46-43.85,72.87-14.36,37.17-18.89,75.22-9.39,114.23,8.39,34.44,28.52,60.49,58.8,78.74,11.75,7.08,23.65,13.91,35.47,20.9.81.48,1.44,1.28,2,3.93-3.34,0-6.68-.18-10,0-12.07.74-24.2,1.15-36.19,2.59-7.87,1-12.32,6.78-15.41,13.88-.87,2-3.86,4.79-5.42,4.52-15.62-2.65-30.42-7.67-45.36-17.71C684,891.75,695.05,883,697,868.55c-16,1.56-31.78,4.43-47.48,4.23-16-.21-31.32-5.39-47.3-15.76,19.87-5.72,29.39-19.13,36-36.77-50.5,10.75-80.39-19.56-109.25-53,21.49.17,42.24-1,60.8-13.37-48-2.9-83.16-29.12-114.7-61.73-6.07-6.27-10.36-14.25-14.61-22.48,18,3.17,35,9,53.38,4.35-.52-1-.67-2-1.13-2.19-24.93-10.46-40.35-30.15-48.48-54.69-7.6-22.95-12.08-46.94-17.82-70.51-.45-1.85-.06-3.91-.06-6.09l31.84,21.32,1.76-1.84a22.41,22.41,0,0,0-1.73-4.47c-17.43-26.52-23.91-56.18-26.36-87.34-1.38-17.55-.53-31.84,15.26-44.89,19-15.71,24.69-40.6,32.85-63.27,7.25-20.14,14.52-40.33,23.11-59.92,7.66-17.49,20.94-30.83,37.21-40.74,17.24-10.51,35.17-19.89,52.24-30.66,20.4-12.88,37.07-29.24,42.89-53.88,1-4.17,1-8.56,1.46-12.86Z"/>
  <path class="cls-2" d="M724.29,730.5c23.45,23,28.88,27.14,40.53,29.21-18.17-31.21-20.9-64.34-13.67-99,2.06,17.28,7,32.86,22.92,45.92-10.39-49.29-.63-91.07,33.69-126-4.35,22.55-4.62,44.34,6.9,65.21,5.06-43.06,32.76-70,65.5-94-4.16,19-10.66,37.56-3.64,57.61,11-37.22,32.36-65.74,67.94-82.89-5.17,11.36-12.17,22-10.55,36.22a46.79,46.79,0,0,0,5.15-4c14.25-15.27,31.61-25.71,50.82-33.5a26.28,26.28,0,0,1,20.92.1c18.74,7.55,35.6,17.85,49.8,32.33,1.6,1.63,3.34,3.12,5.13,4.77,2.78-7.29,1.31-12.26-11.17-37.06,19.54,8.15,33.91,20.09,44.37,35.56,10.3,15.21,18,32.15,26.46,47.53,4.52-18.22.53-37.52-5.56-56.93,33,23.92,61.17,50.74,65.22,96.35,7.55-11.6,9.68-22.76,10-33.82s-1.71-22.27-1.88-33.66c33.43,35.08,44.21,76.56,33.5,124.14,9.65-3.38,13-9.87,22.36-43.91,7.31,17.82,4.52,34.72,2.6,51.49-1.94,17-6,33.35-16.25,47.84,17.21-4.43,29.08-15.79,40.36-28.84-.1,19.45-3.92,37.74-13.71,54.41-10.11,17.22-25.15,27.6-47.06,30.28,13.49,7.58,26.55,5.18,40.84,6.1-11.88,15.24-26.56,23.57-42.63,29.91-16.39,6.46-33.62,6.79-51,5.55-.26.94-.51,1.88-.77,2.82l31.42,14.14c-16.83,10.89-35.36,13.87-53.56,17.28-18.72,3.49-37.39,2.23-55.48-5-.5.66-1,1.32-1.51,2,4.29,6.19,8,12.91,13,18.4s11.6,10,17,15.87c-30.76-.25-56.24-13.71-80.22-34.31-1.73,17.89,5.38,31.42,14,46.09H954.54c7.87-14.82,15.53-28.55,14.31-46.69-23.78,21.07-49.64,34.35-81.09,34.73,12.37-9.73,23.92-19.62,30.37-36.72-19.53,8-38.3,8.77-56.86,5.51-18.21-3.2-36.9-6-53.55-17.22l31.64-14.06c-.1-1-.19-2-.29-3-36.71,4-68-6.42-93-34.36,12.68-2.15,26.16,1,39.26-6.93-22.4-2.89-37.77-14-47.91-32.14C728.22,767.24,724.63,749.27,724.29,730.5Zm341.39-4.84c.63-23.87-6.68-37.12-20.61-46.14-24.49-15.85-50.55-18.36-77.65-6.89-29.48,12.48-40.34,38.26-28.42,67.88,10.89,27,31.33,45.14,56.41,58.46,2.76,1.47,8,1,10.74-.7,10-6.33,20.22-12.73,29-20.64C1052.43,762,1064.67,743.14,1065.68,725.66Z"/>
  <path class="cls-2" d="M1228.6,545.88c-.13,7.14-8.18,20-11.63,18.2-5.75-3.07-12.22-7.41-14.85-12.91-2.4-5,10.42-16.19,17-16.32C1224.38,534.75,1228.71,539.79,1228.6,545.88Z"/>
  <path class="cls-2" d="M771.7,545.9c0-6.38,4-11,9.49-10.94,6.67.11,19.34,11.25,16.86,16.3-2.69,5.48-9.09,9.85-14.84,12.86C779.67,566,771.72,553.09,771.7,545.9Z"/>
  <path d="M952.48,1010.84l12-5c4.65-2,7.66-.79,8,4.57.64,11.68.61,22.1-10,31.41-19.08,16.69-29.7,39.5-38.63,62.9-14.79,38.8-18.22,78.3-7.07,118.66a20.67,20.67,0,0,1,.68,3.82,17,17,0,0,1-.49,3.14c-11.62-5.91-21.38-13.46-27.44-24.4-5.79-10.43-10-21.75-15.39-33.9-16.24,15.18-26.88,34-35.6,54.11l-2.09.11c-1-7.08-2.49-14.13-2.83-21.25-3.06-63.13,19.77-115.42,67.28-156.7,12.43-10.8,26.61-19.58,40-29.27,3.93-2.84,7.93-5.6,11.9-8.4Z"/>
  <path d="M1163.81,1225.44c-10.44-19.39-20.65-38.36-38.62-54.64-5.56,26.38-16.89,47.21-42.09,60.31.58-3.63.79-5.72,1.26-7.74,16-69.39-.21-130.41-47.3-183.57a17.21,17.21,0,0,1-4.06-9.42c-.59-7.67-.19-15.43-.19-25,46.77,22.26,85.24,51.72,110.68,96.13C1165.62,1140.14,1171.61,1181.63,1163.81,1225.44Z"/>
  <path d="M1065.21,1016.85c7.25-2.73,13.19-5.39,19.37-7.22,55.78-16.47,111.28-18.38,165.89,4.6a79.6,79.6,0,0,1,22,14.12c3.4,3.05,5.65,9.52,5.22,14.15a11.8,11.8,0,0,1-12.4,10.76c-12.24-.72-24.85-1.15-36.51-4.47-42.82-12.21-86.22-19.7-130.78-18.12C1085,1031.13,1075.88,1025.48,1065.21,1016.85Z"/>
  <path d="M934.85,1017.87c-7.73,7-15.31,12-25.75,11.95a443.74,443.74,0,0,0-97.86,9.61c-15.63,3.38-30.91,8.4-46.56,11.62-9.22,1.9-18.86,2.2-28.32,2.31-6.52.08-11.09-4-13.16-10.28a13.2,13.2,0,0,1,5.45-15.79c11.08-6.9,22.51-13.7,34.62-18.39,32.52-12.6,66.84-14,100.81-10.07,22,2.56,43.46,10.3,65.13,15.84C931.06,1015.15,932.66,1016.6,934.85,1017.87Z"/>
  <path d="M1028.16,1022.71c0,3.37.36,6.79-.08,10.1-.92,6.89-4.42,11.41-12,11.84-8.27.48-16.53,1.39-24.8,1.79-11.95.58-18-8.93-16-20.56,1.68-9.73-.44-20.36-2.18-30.36-2-11.53,1.7-18.68,13.39-19.55a130.57,130.57,0,0,1,27.84,1.36c6.65.95,11,6,11.73,12.87,1.16,10.8,1.8,21.66,2.66,32.49Z"/>
  <path d="M1065.68,725.66c-1,17.48-13.25,36.31-30.56,52-8.75,7.91-18.95,14.31-29,20.64-2.73,1.72-8,2.17-10.74.7-25.08-13.32-45.52-31.41-56.41-58.46-11.92-29.62-1.06-55.4,28.42-67.88,27.1-11.47,53.16-9,77.65,6.89C1059,688.54,1066.31,701.79,1065.68,725.66Zm-65.18-41.23c-9.32,1.54-18.06,2.41-26.45,4.65-3.43.92-6.07,4.79-9.07,7.32,2.66,2.76,4.83,7,8.06,8.05a82.59,82.59,0,0,0,54.58-.08c3.06-1,5.14-5,7.67-7.55-2.64-2.54-4.9-6.5-8-7.33C1018.42,687.1,1009.21,686,1000.5,684.43Z"/>
  <path class="cls-2" d="M1000.5,684.43c8.71,1.55,17.92,2.67,26.79,5.06,3.1.83,5.36,4.79,8,7.33-2.53,2.59-4.61,6.5-7.67,7.55a82.59,82.59,0,0,1-54.58.08c-3.23-1.09-5.4-5.29-8.06-8.05,3-2.53,5.64-6.4,9.07-7.32C982.44,686.84,991.18,686,1000.5,684.43Z"/>
  <path class="cls-3" d="M494.65,843.47S313,827.15,295.54,952.75,228,1143.16,333.27,1269.49l107.08,26.27-76.81,98.61s198.36,2.31,264.22,77.25,675.83,112.64,706.91,56.32,211.07-149.24,268.67-139.68-41.45-114.73-41.45-114.73,201.29-226.68-72.2-428l-94.43,11.59L1356,925.9l-140.81,19.42L903,955,689.9,934.58l-85.45-47.52-47.21-31.83Z"/>
  <path class="cls-4" d="M448.5,1289.5s193.72,39.48,225.94,0c0,0-117.6,23.73-148.57,41.19s-89.68,1.29-89.68,1.29S449.64,1304.08,448.5,1289.5Z"/>
  <path class="cls-5" d="M771.7,1262.64s24.39-160.36,179.06-168,233.25,103.77,213,130.8S771.7,1262.64,771.7,1262.64Z"/>
  <path class="cls-6" d="M738.16,1289.5c11.46,53.41,130,101.67,212.6,101.9s242.83.24,264.46-31.29,27.09-97.49,0-97.47S738.16,1289.5,738.16,1289.5Z"/>
  <path class="cls-7" d="M846.44,1260s-32.49-13.37-22.7-34.17,47.11-29,52.58-16.91c0,0,85.72-44.91,152.41-18.62,0,0-16.56-11-11.08-20.81s24.1-23,36.15-5.48,0,34.92,0,34.92,10.84,27.92,11.92,37.38-4.45,10-4.45,10Z"/>
  <path class="cls-7" d="M1171.46,1264.59s-5.19,58.85-31.89,49.56-39.7-45.68-39.7-45.68Z"/>
  <path class="cls-7" d="M1028.73,1315.15s-23.45,56.66,0,61.57,76.32,6.54,71.14-6.54S1088.67,1322.25,1028.73,1315.15Z"/>
  <path class="cls-7" d="M877.23,1314.15c-16.93,29.23,6.54,64.2,37.61,51.12s31-36.48,35.92-50.12S893.58,1285.92,877.23,1314.15Z"/>
  <path class="cls-8" d="M1039,1333.23c-6.51.14-9.22,26.78-3.07,28.31s39.19,7.69,40.73,0S1069,1332.59,1039,1333.23Z"/>
  <path class="cls-8" d="M903,1315.15s-12.23.44-10.7,11.89,3.71,23,10.7,22.23,20-7.93,20.81-17S916,1313.32,903,1315.15Z"/>
  <path class="cls-7" d="M867.91,1281.83s10.64,28.48,15.3,25.29,67.55,8,67.55,8,65.79,27.75,88.28,18.08,74.83-39.42,74.83-39.42V1267.7Z"/>
  <path class="cls-9" d="M742.81,1127.13c-6.83,8.22-20.86,7.7-27,16.45-7.39,10.53,2.66,25,14,31a63.22,63.22,0,0,0,49.84,3.7,32.3,32.3,0,0,1-7.4,33.94"/>
  <path class="cls-9" d="M678.53,1160l9.43,16.29"/>
  <path class="cls-9" d="M673.69,1216a193.94,193.94,0,0,0-3.33,52.12"/>
  <path class="cls-9" d="M743.4,1241.19q-30.27-1.15-60.48-3.37"/>
  <path class="cls-9" d="M846.32,1110.41a493.56,493.56,0,0,1-1.64-66.71c6.66,5.66,16.94-4.26,25.36-1.94,17.64,4.87,30.37,23.5,28.48,41.71"/>
  <path class="cls-9" d="M859.12,1078.8,872.6,1069"/>
  <path class="cls-9" d="M1088.67,1043.59a219.71,219.71,0,0,0-47.14-3.44c-5.42.19-11.33.79-15.22,4.58-3.56,3.46-4.55,8.85-4.17,13.81,1.06,14.06,12.57,26.65,26.48,29s28.88-5.87,34.44-18.83a107.38,107.38,0,0,1-24.64,31.8"/>
  <path class="cls-9" d="M1132.76,1058.5v22"/>
  <path class="cls-9" d="M1106.25,1116.49a167.56,167.56,0,0,0,26.24-20.88"/>
  <path class="cls-9" d="M1192.59,1081.64c15.16-1.87,29.69,5.94,42.73,13.92,4.89,3,10.37,7.2,10,12.93s-6.72,9.21-12.23,11.22c-11.56,4.21-23.86,7.45-36.06,5.93-4.94-.61-10.62-2.86-11.59-7.74"/>
  <path class="cls-9" d="M1192.27,1099.74q-27.11,18.46-55.13,35.52"/>
  <path class="cls-9" d="M1178.41,1166.6a206.43,206.43,0,0,0,3.52-46"/>
  <path class="cls-9" d="M1253.78,1215.62c-1.64-9.94-32.86-25.06-41.67-29.94a306.08,306.08,0,0,0,66.37-62"/>
  <path class="cls-9" d="M1335.28,1219.59c-15.84,9.47-34.35,15.3-47,28.7"/>
  <path class="cls-9" d="M1273.16,1257.7a10.67,10.67,0,0,1-7.44,5"/>
</svg>
